<?xml version="1.0" standalone="no"?><!DOCTYPE svg PUBLIC "-//W3C//DTD SVG 1.1//EN" "http://www.w3.org/Graphics/SVG/1.1/DTD/svg11.dtd"><svg t="1577261539868" class="icon" viewBox="0 0 1024 1024" version="1.1" xmlns="http://www.w3.org/2000/svg" p-id="2736" xmlns:xlink="http://www.w3.org/1999/xlink" width="16" height="16"><defs><style type="text/css"></style></defs><path d="M648.259 129.775l241.391 241.391-462.711 462.711-241.391-241.391 462.711-462.711z" p-id="2737"></path><path d="M744.789 33.246l241.323 241.323-72.431 72.431-241.254-241.323 72.363-72.431z" p-id="2738"></path><path d="M161.382 616.653l241.391 241.391-337.92 96.529 96.529-337.92z" p-id="2739"></path><path d="M838.315 30.242l150.869 150.869c24.986 24.986 23.62 66.901-3.004 93.525-26.692 26.692-68.54 27.989-93.525 3.004l-150.869-150.869c-24.986-24.986-23.62-66.901 3.004-93.525 26.692-26.624 68.54-27.989 93.525-3.004z" p-id="2740"></path></svg>