<?xml version="1.0" standalone="no"?><!DOCTYPE svg PUBLIC "-//W3C//DTD SVG 1.1//EN" "http://www.w3.org/Graphics/SVG/1.1/DTD/svg11.dtd"><svg t="1567733051281" class="icon" viewBox="0 0 1025 1024" version="1.1" xmlns="http://www.w3.org/2000/svg" p-id="1988" width="24.0234375" height="24" xmlns:xlink="http://www.w3.org/1999/xlink"><defs><style type="text/css"></style></defs><path d="M1025.024 512c-1.536-235.008-163.84-441.856-392.704-497.664-229.376-56.32-472.064 59.904-577.536 269.312-106.496 210.944-48.128 474.624 133.632 624.128 182.272 150.016 452.608 153.088 638.464 8.192 124.416-96.768 196.608-246.272 198.144-403.456v-0.512z m-476.672 453.632C312.32 984.576 102.4 813.568 63.488 582.656 24.064 349.696 182.784 124.416 408.576 69.12c228.864-55.808 466.432 83.456 538.112 305.664 14.336 44.544 20.48 90.624 20.992 137.216-1.536 235.008-184.32 434.688-419.328 453.632z" p-id="1989" fill="white"></path><path d="M246.272 503.296L465.92 719.872c9.728 9.216 26.624 10.24 36.352 0L824.32 359.424c22.016-24.576-14.336-60.928-36.352-36.352L465.92 683.52h36.352c-73.216-72.192-146.432-144.384-219.648-217.088-23.552-22.528-59.904 13.312-36.352 36.864z" p-id="1990" fill="white"></path></svg>