<?xml version="1.0" standalone="no"?><!DOCTYPE svg PUBLIC "-//W3C//DTD SVG 1.1//EN" "http://www.w3.org/Graphics/SVG/1.1/DTD/svg11.dtd"><svg t="1564639299372" class="icon" viewBox="0 0 1024 1024" version="1.1" xmlns="http://www.w3.org/2000/svg" p-id="19110" width="15" height="15" xmlns:xlink="http://www.w3.org/1999/xlink"><defs><style type="text/css"></style></defs><path d="M512 995.555556C245.361778 995.555556 28.444444 778.638222 28.444444 512 28.444444 245.361778 245.361778 28.444444 512 28.444444c266.638222 0 483.555556 216.917333 483.555556 483.555556 0 266.638222-216.917333 483.555556-483.555556 483.555556z m0-910.222223C276.707556 85.333333 85.333333 276.707556 85.333333 512s191.374222 426.666667 426.666667 426.666667 426.666667-191.374222 426.666667-426.666667S747.292444 85.333333 512 85.333333z" p-id="19111" fill="#00aaff"></path><path d="M755.427556 361.358222a30.72 30.72 0 0 0-43.576889 0.056889L447.431111 625.777778l-1.194667-1.194667-134.144-134.144a30.606222 30.606222 0 0 0-43.576888 0 30.947556 30.947556 0 0 0 0 43.576889l157.127111 157.127111c5.802667 5.859556 13.539556 8.988444 21.788444 8.988445s15.985778-3.185778 21.788445-8.988445l286.208-286.208a30.890667 30.890667 0 0 0 0-43.576889z" p-id="19112" fill="#00aaff"></path></svg>