<?xml version="1.0" standalone="no"?><!DOCTYPE svg PUBLIC "-//W3C//DTD SVG 1.1//EN" "http://www.w3.org/Graphics/SVG/1.1/DTD/svg11.dtd"><svg t="1576031730629" class="icon" viewBox="0 0 1024 1024" version="1.1" xmlns="http://www.w3.org/2000/svg" p-id="2728" xmlns:xlink="http://www.w3.org/1999/xlink" width="16" height="16"><defs><style type="text/css"></style></defs><path d="M40.959754 337.921044m25.599847 0l819.195084 0q25.599846 0 25.599847 25.599847l0 563.196621q0 25.599846-25.599847 25.599846l-819.195084 0q-25.599846 0-25.599847-25.599846l0-563.196621q0-25.599846 25.599847-25.599847Z" fill="#04B98F" p-id="2729"></path><path d="M511.996928 307.201229H255.998464v409.597542l153.599078-51.199693 102.399386 51.199693V307.201229z" fill="#FFFFFF" p-id="2730"></path><path d="M655.356068 409.600614V327.681106h327.678034V409.600614h-327.678034zM163.839017 409.600614h-35.634986C57.394856 409.600614 0 354.560945 0 286.721352V122.882335C0 54.991542 57.394856 0.003072 128.204031 0.003072H983.034102v81.919508H128.204031c-23.551859 0-42.700544 18.32949-42.700544 40.959755v163.839017c0 22.630264 19.097485 40.959754 42.700544 40.959754H163.839017V409.600614z" fill="#2B2B2B" p-id="2731"></path><path d="M696.315822 696.318894V614.399386h245.758526v81.919508h-245.758526z m-532.476805 0h-40.959754c-67.839593 0-122.879263-49.510103-122.879263-110.591336V438.272442C0 377.191209 55.03967 327.681106 122.879263 327.681106h40.959754V409.600614h-40.959754c-22.630264 0-40.959754 15.257508-40.959755 34.150195V580.249191c0 18.841487 18.32949 34.150195 40.959755 34.150195h40.959754v81.919508z m532.476805-368.637788h245.758526V409.600614h-245.758526V327.681106z" fill="#2B2B2B" p-id="2732"></path><path d="M163.839017 614.399386v81.919508H128.204031c-23.551859 0-42.700544 18.32949-42.700544 40.959754v163.839017c0 22.630264 19.097485 40.959754 42.700544 40.959755H983.034102V1023.996928H128.204031C57.394856 1023.996928 0 968.957258 0 901.117665v-163.839017C0 669.387856 57.394856 614.399386 128.204031 614.399386H163.839017z m491.517051 0h327.678034v81.919508h-327.678034V614.399386zM950.419897 16.182175a40.959754 40.959754 0 1 1 65.228409 49.561303c-35.839785 47.103717-53.094081 93.183441-53.094081 139.058365 0 45.926124 17.305496 92.005848 53.094081 139.058366a40.959754 40.959754 0 1 1-65.228409 49.561302C904.340174 332.801075 880.634716 269.671854 880.634716 204.801843c0-64.870011 23.654258-127.999232 69.785181-188.619668z" fill="#2B2B2B" p-id="2733"></path><path d="M950.419897 630.578489a40.959754 40.959754 0 1 1 65.228409 49.561302c-35.839785 47.103717-53.094081 93.183441-53.094081 139.058366 0 45.926124 17.305496 92.005848 53.094081 139.058365a40.959754 40.959754 0 1 1-65.228409 49.561303C904.340174 947.197389 880.634716 884.068168 880.634716 819.198157c0-64.870011 23.654258-127.999232 69.785181-188.619668z" fill="#2B2B2B" p-id="2734"></path><path d="M163.839017 368.64086m-51.199693 0a51.199693 51.199693 0 1 0 102.399386 0 51.199693 51.199693 0 1 0-102.399386 0Z" fill="#2B2B2B" p-id="2735"></path><path d="M163.839017 655.35914m-51.199693 0a51.199693 51.199693 0 1 0 102.399386 0 51.199693 51.199693 0 1 0-102.399386 0Z" fill="#2B2B2B" p-id="2736"></path><path d="M655.356068 368.64086m-51.199693 0a51.199693 51.199693 0 1 0 102.399386 0 51.199693 51.199693 0 1 0-102.399386 0Z" fill="#2B2B2B" p-id="2737"></path><path d="M655.356068 655.35914m-51.199693 0a51.199693 51.199693 0 1 0 102.399386 0 51.199693 51.199693 0 1 0-102.399386 0Z" fill="#2B2B2B" p-id="2738"></path><path d="M937.107977 348.519381a40.959754 40.959754 0 1 1 71.372372 40.242958C977.504535 443.59721 962.554225 485.427359 962.554225 512c0 25.343848 14.028716 59.903641 43.826937 102.399386a40.959754 40.959754 0 0 1-67.122798 47.001318C900.704996 606.309834 880.634716 556.95333 880.634716 512c0-43.724538 19.199885-97.484215 56.473261-163.480619zM307.198157 327.681106v361.469831l65.074809-55.756465a57.343656 57.343656 0 0 1 74.649152 0L511.996928 689.202137V327.681106H307.198157z m102.399385 381.64251L326.65404 780.28639a61.439631 61.439631 0 0 1-101.375392-46.59172V307.201229a61.439631 61.439631 0 0 1 61.439632-61.439632h245.758525A61.439631 61.439631 0 0 1 593.916437 307.201229v426.493441a61.439631 61.439631 0 0 1-101.375392 46.64292L409.597542 709.323616z" fill="#2B2B2B" p-id="2739"></path></svg>