<?xml version="1.0" standalone="no"?><!DOCTYPE svg PUBLIC "-//W3C//DTD SVG 1.1//EN" "http://www.w3.org/Graphics/SVG/1.1/DTD/svg11.dtd"><svg t="1576031681882" class="icon" viewBox="0 0 1024 1024" version="1.1" xmlns="http://www.w3.org/2000/svg" p-id="2341" xmlns:xlink="http://www.w3.org/1999/xlink" width="16" height="16"><defs><style type="text/css"></style></defs><path d="M991.232 868.5568a280.9344 280.9344 0 0 1-43.8784-32.0512c-19.328-17.4592-42.4448-44.2624-42.4448-73.3184 0-21.5552 12.8-43.1104 38.5536-64a217.088 217.088 0 0 1 45.056-28.16h0.2048s0.1792 0 0.2816-0.2048h0.2048c0.5888-0.3072 1.0752-0.4864 1.6384-0.7936s0.4864-0.2816 0.7936-0.384l1.4592-0.8704a5.6576 5.6576 0 0 0 0.6656-0.4864 13.2864 13.2864 0 0 0 1.4592-1.0752 2.3552 2.3552 0 0 0 0.5888-0.4864c0.4864-0.384 0.9472-0.768 1.3568-1.152s0.4864-0.4864 0.768-0.6912l1.1776-1.152a34.3808 34.3808 0 0 0 8.3456-14.8736 33.024 33.024 0 0 0-1.3568-20.48c-0.4096-0.8704-0.7936-1.7408-1.1776-2.56a33.0752 33.0752 0 0 0-3.7888-5.8368s-0.1792-0.2816-0.2816-0.384c-0.4864-0.4864-0.8704-1.0496-1.3568-1.536a5.7088 5.7088 0 0 0-0.768-0.7936 7.1168 7.1168 0 0 1-1.0752-1.0752 15.9232 15.9232 0 0 0-1.3568-1.152c-0.2048-0.2048-0.4864-0.384-0.6912-0.5888-0.5888-0.384-1.0752-0.768-1.6384-1.152l-0.4864-0.3072c-0.6912-0.384-1.3568-0.8704-1.9456-1.152h-0.2048a264.3968 264.3968 0 0 1-46.08-34.0736c-18.3552-17.1008-40.192-43.52-40.192-71.296 0-21.5552 12.8-43.1104 38.5536-64a223.0016 223.0016 0 0 1 40.6784-26.2144 33.28 33.28 0 0 0 23.3216-23.7824 32.6144 32.6144 0 0 0 0.9728-6.912v-0.1792h-3.4048H1008.64v-1.0752a35.2512 35.2512 0 0 0-0.6912-7.168 33.024 33.024 0 0 0-20.6848-24.2944c-14.3616-8.832-82.1504-53.0176-82.1504-102.9376 0-21.5552 12.928-43.1104 38.5536-64a217.6 217.6 0 0 1 45.056-28.16A33.28 33.28 0 0 0 975.36 93.0304H148.48c-70.7584-0.1792-128.3328 54.016-128.3328 120.6272v82.2528a117.76 117.76 0 0 0 39.7312 87.296 117.76 117.76 0 0 0-39.7312 87.296v82.2528a117.76 117.76 0 0 0 40.0128 87.6032 117.76 117.76 0 0 0-40.0128 87.5776v82.2528c0 66.56 57.5744 120.8064 128.2816 120.8064H975.36a33.28 33.28 0 0 0 16-62.4384z m-109.5168-4.0704H148.48c-34.0736 0-61.8496-24.3712-61.8496-54.3744v-82.2528c0-30.0288 27.776-54.4 61.8496-54.4h726.144c-23.7056 27.4944-36.1216 58.368-36.1216 89.6 0 34.176 14.848 69.12 43.2128 101.376zM86.656 552.7552v-82.2528c0-27.6736 23.5008-50.8672 54.784-53.9904 2.56 0 4.7616 0.2048 7.0912 0.2048H874.24c-23.424 27.3664-35.6608 57.9584-35.6608 89.0368 0 34.0992 14.976 69.12 43.3152 101.2992H148.48c-34.0736 0-61.7728-24.3712-61.7728-54.2976zM148.48 349.696c-2.2272 0-4.6592 0-7.0912 0.2048-31.3088-3.0976-54.8096-26.3168-54.8096-53.9904V213.6576c0-30.0032 27.776-54.3744 61.8496-54.3744h726.1952C850.9184 186.88 838.5024 217.6 838.5024 248.9088c0 33.8944 14.7456 68.6592 42.8032 100.7872z" fill="#08A9F9" p-id="2342"></path><path d="M975.36 942.5152H148.48c-77.0816 0-139.8016-59.3664-139.8016-132.3264v-82.2528a129.1008 129.1008 0 0 1 35.0976-87.5776 129.1008 129.1008 0 0 1-35.1488-87.6032v-82.2528A128.9216 128.9216 0 0 1 43.52 383.2064a128.9216 128.9216 0 0 1-34.8416-87.296V213.6576a128 128 0 0 1 38.4-90.9568A143.6416 143.6416 0 0 1 148.48 81.536h826.88a44.8 44.8 0 0 1 17.92 85.8624 209.7664 209.7664 0 0 0-42.3936 26.624C928.0768 212.48 916.48 231.0912 916.48 249.088c0 33.664 40.6272 70.784 75.8016 92.5952a44.3648 44.3648 0 0 1 26.6752 31.744h1.0496v22.6048h-1.7408a44.8256 44.8256 0 0 1-29.824 30.2336 210.7904 210.7904 0 0 0-37.632 24.3712c-22.784 18.56-34.3296 37.0688-34.3296 55.0656 0 25.088 22.8864 50.1504 36.5312 62.848a250.3168 250.3168 0 0 0 43.6736 32.3328c0.7168 0.384 1.3824 0.768 2.048 1.1776l1.5616 0.9728 1.2032 0.8448 1.8944 1.4592 0.3072 0.2304a24.6272 24.6272 0 0 1 2.048 1.8432l0.5888 0.5888a15.1296 15.1296 0 0 1 1.4336 1.408c0.4352 0.4608 0.8704 0.9472 1.28 1.4592a13.5424 13.5424 0 0 1 1.28 1.4848 46.3104 46.3104 0 0 1 4.8896 7.552l1.3056 2.56v0.384a1.0752 1.0752 0 0 1 0 0.256l0.9984 2.2272v0.4864a44.6464 44.6464 0 0 1 1.024 25.6 45.7472 45.7472 0 0 1-11.1616 19.9168l-2.4064 2.3552-0.3328 0.2816c-0.384 0.3584-0.8192 0.7168-1.2544 1.0752a14.0544 14.0544 0 0 1-1.1776 0.9728c-0.4864 0.384-1.0752 0.8704-1.792 1.3568a11.8272 11.8272 0 0 1-1.1008 0.7424l-3.3536 1.9456-0.5376 0.256-2.3552 1.152a209.7664 209.7664 0 0 0-42.3936 26.624c-22.8096 18.5856-34.3552 37.0944-34.3552 55.0912 0 24.6528 21.0176 48.8448 38.656 64.7936a269.5424 269.5424 0 0 0 41.728 30.4896h0.128a44.8 44.8 0 0 1-21.7088 83.968zM148.096 104.5504A120.5248 120.5248 0 0 0 63.2832 139.008a104.96 104.96 0 0 0-31.616 74.6496v82.2528a106.5728 106.5728 0 0 0 35.84 78.7456l9.4976 8.5504L67.584 391.68a106.5728 106.5728 0 0 0-35.84 78.7456v82.2528a106.8288 106.8288 0 0 0 36.096 79.104l9.5744 8.576-9.5744 8.576a106.7264 106.7264 0 0 0-36.1728 79.0016v82.2528c0 60.2624 52.3776 109.2864 116.7616 109.2864H975.36a21.76 21.76 0 0 0 10.24-40.8064l-0.5632-0.3328a296.32 296.32 0 0 1-45.4912-33.28c-30.2592-27.3664-46.2592-55.68-46.2592-81.92 0-25.2416 14.4128-49.792 42.8032-72.9088a230.1696 230.1696 0 0 1 46.08-29.1072l1.6896-0.8192 1.3824-0.6656 0.5376-0.256 0.4096-0.2304 1.3824-0.896 0.8192-0.8192 0.4864-0.256 0.3584-0.2816 1.024-0.9472 0.64-0.64a22.4512 22.4512 0 0 0 5.4528-9.7536 21.248 21.248 0 0 0-0.896-13.2608l-0.3072-0.768a11.7248 11.7248 0 0 0-0.4608-0.9728l-0.512-1.024a18.7904 18.7904 0 0 0-1.5616-2.3552l-0.6656-0.8448-0.7424-0.8448-0.2048-0.2048-0.5632-0.5632a15.36 15.36 0 0 1-1.1776-1.152l-0.3328-0.256-0.5632-0.4608-0.4864-0.3584-0.4864-0.3328c-0.2048 0-0.6656-0.384-1.0752-0.6656l-0.3584-0.2048h0.1792a273.92 273.92 0 0 1-48.9216-35.9936c-20.0192-18.6368-43.8784-47.5904-43.8784-79.7184 0-25.2672 14.3872-49.792 42.8032-72.9344a236.3136 236.3136 0 0 1 42.8544-27.5968l0.9728-0.4864 1.024-0.2816a21.6576 21.6576 0 0 0 15.232-15.5136 20.48 20.48 0 0 0 0.64-4.3776v-1.0752a24.96 24.96 0 0 0-0.4352-4.8384 21.4784 21.4784 0 0 0-13.4656-15.8208l-1.0496-0.4096-0.9472-0.5632c-20.48-12.6464-87.6288-58.1376-87.6288-112.64 0-25.2416 14.3872-49.792 42.8032-72.9088a230.5536 230.5536 0 0 1 47.5392-29.696l0.3584-0.1536a21.76 21.76 0 0 0-8.6784-41.728H148.096zM983.68 660.48h-0.1792z m3.456-1.8176z m2.9696-2.048l-0.3328 0.1792z m11.4688-272.0256l3.3792 0.1536v-0.1536z m-94.4384 491.52H148.48c-40.4736 0-73.3696-29.568-73.3696-65.8944v-82.3552c0-36.352 32.896-65.92 73.3696-65.92h751.2832l-16.4352 19.0208c-21.7856 25.2928-33.28 53.76-33.28 82.1248 0 31.232 13.952 63.6672 40.3456 93.7728zM148.48 684.9792c-27.7504 0-50.3296 19.2256-50.3296 42.88v82.2528c0 23.6288 22.5792 42.8544 50.3296 42.8544h709.504c-20.352-28.9792-31.104-59.6736-31.104-89.856a141.9008 141.9008 0 0 1 24.5248-78.1312z m758.9376-66.4064H148.48c-40.3968 0-73.2928-29.5168-73.2928-65.8176v-82.2528c0-33.6128 28.0064-61.7472 65.152-65.4592h1.8944c2.176 0 4.2496 0.1792 6.3488 0.1792h750.6432l-16.2304 18.9952c-21.5296 25.1648-32.896 53.376-32.896 81.5616 0 31.2064 14.0032 63.5904 40.448 93.6704z m-765.44-190.5152c-24.9344 2.816-43.52 20.9408-43.52 42.4448v82.2528c0 23.5776 22.5536 42.7776 50.2528 42.7776h709.4272c-20.48-28.9536-31.0784-59.6224-31.0784-89.7792 0-26.6752 8.2944-53.0944 24.1664-77.5168H148.48c-2.176 0-4.3776-0.0768-6.656-0.1792z m-0.8192-66.56h-0.7936c-37.1456-3.712-65.152-31.8464-65.152-65.4592V213.6576c0-36.352 32.896-65.8944 73.3696-65.8944h751.1808l-16.4352 19.0208c-21.7856 25.2928-33.28 53.76-33.28 82.1248 0 31.0272 13.824 63.2576 39.9616 93.2096l16.6912 19.0976H148.48c-2.0736 0-4.352 0-6.6304 0.2048zM148.48 170.8032c-27.7504 0-50.3296 19.2256-50.3296 42.8544v82.2528c0 21.504 18.688 39.6288 43.52 42.4448 2.304 0 4.5824-0.1792 6.7072-0.1792H857.6c-20.1472-28.8-30.72-59.3152-30.72-89.2672a141.7728 141.7728 0 0 1 24.5248-78.1056z" fill="#08A9F9" p-id="2343"></path></svg>