<?xml version="1.0" standalone="no"?><!DOCTYPE svg PUBLIC "-//W3C//DTD SVG 1.1//EN" "http://www.w3.org/Graphics/SVG/1.1/DTD/svg11.dtd"><svg t="1576031712234" class="icon" viewBox="0 0 1024 1024" version="1.1" xmlns="http://www.w3.org/2000/svg" p-id="2599" xmlns:xlink="http://www.w3.org/1999/xlink" width="16" height="16"><defs><style type="text/css"></style></defs><path d="M609.697 319.136c0-21.119-17.28-38.4-38.4-38.4H194.359c-21.12 0-38.4 17.281-38.4 38.4 0 21.12 17.28 38.4 38.4 38.4h376.938c21.12 0 38.4-17.28 38.4-38.4zM470.128 527.136c0-21.12-17.28-38.4-38.4-38.4H194.359c-21.12 0-38.4 17.28-38.4 38.4s17.28 38.4 38.4 38.4h237.369c21.12 0 38.4-17.28 38.4-38.4zM194.359 696.736c-21.12 0-38.4 17.28-38.4 38.4s17.28 38.4 38.4 38.4h150.07c21.12 0 38.4-17.28 38.4-38.4s-17.28-38.4-38.4-38.4h-150.07z" p-id="2600"></path><path d="M781.705 798.72c-21.208 0-38.4 17.192-38.4 38.4V896c0 28.159-23.041 51.2-51.2 51.2h-563.2c-28.161 0-51.2-23.041-51.2-51.2V128c0-28.161 23.039-51.2 51.2-51.2h563.2c28.159 0 51.2 23.039 51.2 51.2v58.88c0 21.208 17.192 38.4 38.4 38.4s38.4-17.192 38.4-38.4V102.4c0-56.32-46.08-102.4-102.4-102.4h-614.4C46.985 0 0.905 46.08 0.905 102.4v819.2c0 56.32 46.08 102.4 102.4 102.4h614.4c56.32 0 102.4-46.08 102.4-102.4v-84.48c0-21.208-17.193-38.4-38.4-38.4z" p-id="2601"></path><path d="M1000.694 393.62l-88.419-88.42c-29.869-29.867-78.744-29.869-108.613 0l-48.803 48.805-50.686 50.684-209.146 209.147c-6.933 6.547-11.392 15.667-11.394 25.897l0.002 146.688c-0.002 19.713 16.127 35.841 35.839 35.839l146.688 0.002c10.23-0.002 19.35-4.459 25.897-11.394L901.205 601.72l50.686-50.686 48.803-48.803c29.869-29.869 29.869-78.742 0-108.611zM555.313 750.581l0.002-74.711 74.709 74.709-74.711 0.002z m153.97-58.318l-18.102 18.103-3.617-3.617-14.484-14.486-59.447-59.447-14.487-14.486-3.616-3.616 18.103-18.102L754.864 455.38l95.652 95.652-141.233 141.231z m226.239-226.24L901.2 500.345l-95.65-95.65 34.322-34.322c9.955-9.956 26.247-9.956 36.203 0l59.447 59.447c9.956 9.957 9.956 26.249 0 36.203z" p-id="2602"></path></svg>