<?xml version="1.0" standalone="no"?><!DOCTYPE svg PUBLIC "-//W3C//DTD SVG 1.1//EN" "http://www.w3.org/Graphics/SVG/1.1/DTD/svg11.dtd"><svg t="1576031580845" class="icon" viewBox="0 0 1024 1024" version="1.1" xmlns="http://www.w3.org/2000/svg" p-id="1831" xmlns:xlink="http://www.w3.org/1999/xlink" width="16" height="16"><defs><style type="text/css"></style></defs><path d="M691.2 119.466667L896 320l-89.6 89.6-204.8-200.533333 89.6-89.6z" fill="" p-id="1832"></path><path d="M371.2 925.866667L1002.666667 298.666667c25.6-25.6 25.6-64 0-89.6L819.2 21.333333c-25.6-25.6-64-25.6-89.6 0L98.133333 648.533333c-8.533333 8.533333-12.8 17.066667-12.8 25.6v4.266667l-81.066666 298.666667c-8.533333 25.6 17.066667 46.933333 38.4 42.666666h725.333333v-42.666666H209.066667l119.466666-29.866667c17.066667-4.266667 29.866667-8.533333 42.666667-21.333333z m392.533333-780.8l123.733334 119.466666L345.6 797.866667l-123.733333-123.733334L763.733333 145.066667zM115.2 900.266667l38.4-145.066667L256 857.6l-140.8 42.666667z" fill="" p-id="1833"></path></svg>