<?xml version="1.0" standalone="no"?><!DOCTYPE svg PUBLIC "-//W3C//DTD SVG 1.1//EN" "http://www.w3.org/Graphics/SVG/1.1/DTD/svg11.dtd"><svg t="1576031700379" class="icon" viewBox="0 0 1075 1024" version="1.1" xmlns="http://www.w3.org/2000/svg" p-id="2469" xmlns:xlink="http://www.w3.org/1999/xlink" width="16.796875" height="16"><defs><style type="text/css"></style></defs><path d="M7.314286 0h921.6v1024H7.314286z" fill="#FFAB2B" opacity=".15" p-id="2470"></path><path d="M103.862857 105.325714h731.428572v819.2h-731.428572z" fill="#FFAB2B" p-id="2471"></path><path d="M350.734629 312.071314h128.8192a43.885714 43.885714 0 0 1 28.350171 10.386286l83.631543 70.743771A43.885714 43.885714 0 0 1 607.085714 426.7008v238.08C607.085714 699.713829 606.690743 702.171429 570.865371 702.171429H350.734629C314.909257 702.171429 314.514286 699.713829 314.514286 664.7808V349.476571c0-34.933029 0.394971-37.390629 36.220343-37.390628zM412.028343 526.628571a19.499886 19.499886 0 1 0 0 39.0144H548.571429A19.499886 19.499886 0 0 0 548.571429 526.628571h-136.528458z m0 78.014172a19.499886 19.499886 0 0 0 0 39.0144h58.514286a19.499886 19.499886 0 0 0 0-39.0144h-58.514286z" fill="#FFFFFF" opacity=".7" p-id="2472"></path><path d="M389.749029 351.085714h148.333714a43.885714 43.885714 0 0 1 28.335543 10.386286l83.631543 70.743771A43.885714 43.885714 0 0 1 665.6 465.7152v238.08c0 34.933029-0.394971 37.390629-36.220343 37.390629H389.749029c-35.84 0-36.220343-2.4576-36.220343-37.390629V388.476343c0-34.933029 0.394971-37.390629 36.220343-37.390629z m22.293942 175.542857a19.499886 19.499886 0 1 0 0 39.0144H548.571429A19.499886 19.499886 0 0 0 548.571429 526.628571h-136.528458z m0 78.014172a19.499886 19.499886 0 0 0 0 39.0144h58.514286a19.499886 19.499886 0 0 0 0-39.0144h-58.514286z" fill="#FFFFFF" p-id="2473"></path></svg>