<?xml version="1.0" standalone="no"?><!DOCTYPE svg PUBLIC "-//W3C//DTD SVG 1.1//EN" "http://www.w3.org/Graphics/SVG/1.1/DTD/svg11.dtd"><svg t="1576031621304" class="icon" viewBox="0 0 1024 1024" version="1.1" xmlns="http://www.w3.org/2000/svg" p-id="2086" xmlns:xlink="http://www.w3.org/1999/xlink" width="16" height="16"><defs><style type="text/css"></style></defs><path d="M396.8 806.4c-6.4 28.8-19.2 57.6-38.4 80h416c32 0 60.8-12.8 80-35.2 12.8-12.8 22.4-28.8 25.6-44.8H396.8z m-38.4-252.8c-22.4-80 22.4-176 80-227.2 9.6-6.4 22.4-6.4 28.8 3.2 3.2 3.2 6.4 9.6 6.4 12.8v12.8l28.8-38.4c32-35.2 80-57.6 121.6-60.8 12.8 0 22.4 6.4 22.4 19.2 0 6.4 0 9.6-3.2 16-6.4 6.4-12.8 16-16 22.4 28.8-16 64-25.6 99.2-32V137.6H131.2v633.6c0 28.8 12.8 57.6 28.8 76.8 41.6 48 99.2 44.8 140.8 0 19.2-19.2 28.8-48 28.8-76.8 0-19.2 16-35.2 35.2-35.2h358.4v-208c-35.2 28.8-83.2 44.8-160 22.4 6.4 6.4 16 12.8 25.6 19.2 9.6 6.4 12.8 19.2 6.4 28.8-3.2 6.4-9.6 6.4-12.8 9.6-57.6 16-150.4 12.8-201.6-25.6-9.6 6.4-22.4 22.4-28.8 51.2-6.4 25.6-44.8 16-41.6-9.6 12.8-35.2 32-60.8 48-70.4z m435.2-281.6c70.4 6.4 128 41.6 137.6 124.8 0 12.8-6.4 22.4-19.2 22.4h-3.2c-54.4 0-89.6 22.4-118.4 48v272h131.2c19.2 0 35.2 16 35.2 35.2 0 51.2-19.2 92.8-51.2 128l-3.2 3.2c-32 32-80 54.4-128 54.4h-544c-44.8 0-92.8-28.8-121.6-60.8-25.6-35.2-44.8-80-44.8-128V102.4c0-19.2 16-35.2 35.2-35.2h662.4c19.2 0 35.2 16 35.2 35.2v169.6h-3.2z m-393.6 268.8c16 35.2 96 35.2 131.2 35.2-12.8-16-19.2-28.8-22.4-41.6-3.2-16 0-48 28.8-35.2 118.4 48 160 6.4 201.6-38.4 35.2-38.4 73.6-76.8 147.2-83.2-35.2-121.6-249.6-51.2-300.8 9.6-6.4 6.4-12.8 9.6-22.4 9.6-12.8-3.2-16-12.8-16-25.6 0 0 9.6-28.8 28.8-64-16 9.6-32 19.2-48 35.2-25.6 25.6-41.6 54.4-41.6 86.4 0 9.6-6.4 16-12.8 19.2-9.6 3.2-22.4-3.2-25.6-12.8-6.4-16-12.8-32-16-48-25.6 44.8-48 102.4-32 153.6z" fill="#0079C1" p-id="2087"></path></svg>