<?xml version="1.0" standalone="no"?><!DOCTYPE svg PUBLIC "-//W3C//DTD SVG 1.1//EN" "http://www.w3.org/Graphics/SVG/1.1/DTD/svg11.dtd"><svg t="1576031742865" class="icon" viewBox="0 0 1024 1024" version="1.1" xmlns="http://www.w3.org/2000/svg" p-id="2865" xmlns:xlink="http://www.w3.org/1999/xlink" width="16" height="16"><defs><style type="text/css"></style></defs><path d="M392.021333 600.7296l24.891734-10.0864-43.264-43.255467-13.738667 33.937067c-48.6144-26.897067-109.764267-50.056533-184.661333-59.9808 0 0-47.095467 50.013867-55.722667 77.201067 0 0 277.307733 31.214933 390.929067 255.402666l0.017066-140.2112s-36.923733-59.357867-118.4512-113.006933z" fill="#2C2C2C" p-id="2866"></path><path d="M493.7984 840.0128S307.541333 599.168 96.401067 645.333333c0 0-23.466667 60.049067-21.751467 87.338667 0.008533 0 247.150933-59.400533 419.1488 107.3408z" fill="#2C2C2C" p-id="2867"></path><path d="M44.398933 773.632s-7.330133 66.909867 1.834667 93.934933c0 0 232.951467-127.035733 451.643733-5.7088 0 0-253.201067-192.145067-453.4784-88.226133zM901.4272 598.545067c-8.635733-27.195733-55.714133-77.201067-55.714133-77.201067-235.153067 31.163733-335.240533 192.392533-335.240534 192.392533v140.2112c113.646933-224.196267 390.954667-255.402667 390.954667-255.402666z" fill="#2C2C2C" p-id="2868"></path><path d="M530.193067 840.0128c171.997867-166.741333 419.1488-107.3408 419.1488-107.3408 1.732267-27.2896-21.751467-87.338667-21.751467-87.338667-211.114667-46.1568-397.397333 194.679467-397.397333 194.679467z" fill="#2C2C2C" p-id="2869"></path><path d="M979.601067 773.632c-200.260267-103.918933-453.486933 88.226133-453.486934 88.226133 218.692267-121.326933 451.6608 5.7088 451.6608 5.7088 9.147733-27.025067 1.826133-93.934933 1.826134-93.934933zM688.290133 358.877867l-82.824533-82.8416-183.68 183.637333 82.8416 82.8416 183.662933-183.637333zM751.556267 295.227733c0.913067-0.8448 1.834667-1.655467 2.756266-2.577066a58.504533 58.504533 0 0 0 0-82.705067 58.5984 58.5984 0 0 0-81.885866-0.913067l-0.170667-0.162133-53.2736 53.265067 82.8416 82.824533 49.732267-49.732267zM490.0864 557.056l-82.8416-82.824533-19.566933 59.144533 43.281066 43.255467 59.127467-19.575467z" fill="#2C2C2C" p-id="2870"></path></svg>