<?xml version="1.0" standalone="no"?><!DOCTYPE svg PUBLIC "-//W3C//DTD SVG 1.1//EN" "http://www.w3.org/Graphics/SVG/1.1/DTD/svg11.dtd"><svg t="1576031641442" class="icon" viewBox="0 0 1024 1024" version="1.1" xmlns="http://www.w3.org/2000/svg" p-id="2212" xmlns:xlink="http://www.w3.org/1999/xlink" width="16" height="16"><defs><style type="text/css"></style></defs><path d="M1002.4 733.6c-8-16.8-24.8-28-44-28H425.6v193.6L304 778.4l-120.8 120.8V705.6h-72.8c-40 0-72.8 32.8-72.8 72.8v96.8c0 40 32.8 72.8 72.8 72.8h848c18.4 0 36-11.2 44-28-26.4-22.4-44-56-44-93.6 0-36 16-69.6 44-92.8z" p-id="2213"></path><path d="M376.8 782.4V196.8c0-13.6-11.2-24-24-24H256c-13.6 0-24 11.2-24 24v585.6l72.8-72.8 72 72.8zM110.4 632.8h72.8V391.2h-72.8c-40 0-72.8 32.8-72.8 72.8v96.8c0 40 32.8 72 72.8 72zM1002.4 418.4c-8-16.8-24.8-28-44-28H425.6v242.4h532.8c18.4 0 36-11.2 44-28-26.4-22.4-44-56-44-93.6 0-35.2 16-69.6 44-92.8z" p-id="2214"></path><path d="M958.4 196.8c0-36 16-70.4 44-93.6-8-16.8-24.8-28-44-28h-848c-40 0-72.8 32.8-72.8 72.8v96.8c0 40 32.8 72.8 72.8 72.8h72.8V196.8c0-40 32.8-72.8 72.8-72.8h96.8c40 0 72.8 32.8 72.8 72.8v120.8h532.8c18.4 0 36-11.2 44-28-27.2-21.6-44-55.2-44-92.8z" p-id="2215"></path></svg>