<?xml version="1.0" standalone="no"?><!DOCTYPE svg PUBLIC "-//W3C//DTD SVG 1.1//EN" "http://www.w3.org/Graphics/SVG/1.1/DTD/svg11.dtd"><svg t="1567733655996" class="icon" viewBox="0 0 1024 1024" version="1.1" xmlns="http://www.w3.org/2000/svg" p-id="3780" xmlns:xlink="http://www.w3.org/1999/xlink" width="24" height="24"><defs><style type="text/css"></style></defs><path d="M512 64C262.4 64 64 262.4 64 512s198.4 448 448 448 448-198.4 448-448S761.6 64 512 64z m0 64c92.672 0 177.92 33.28 244.48 88.512L219.392 759.488A381.76 381.76 0 0 1 128 512c0-211.2 172.8-384 384-384z m289.728 133.12A381.888 381.888 0 0 1 896 512c0 211.2-172.8 384-384 384a381.952 381.952 0 0 1-244.608-88.64l534.4-546.24z" p-id="3781" fill="#d81e06"></path></svg>