<?xml version="1.0" standalone="no"?><!DOCTYPE svg PUBLIC "-//W3C//DTD SVG 1.1//EN" "http://www.w3.org/Graphics/SVG/1.1/DTD/svg11.dtd"><svg t="1564639261448" class="icon" viewBox="0 0 1024 1024" version="1.1" xmlns="http://www.w3.org/2000/svg" p-id="18312" width="15" height="15" xmlns:xlink="http://www.w3.org/1999/xlink"><defs><style type="text/css"></style></defs><path d="M526.628571 672.914286h-65.828571v-36.571429c0-29.257143 7.314286-51.2 14.628571-65.828571 7.314286-21.942857 29.257143-36.571429 58.514286-58.514286 29.257143-21.942857 43.885714-43.885714 58.514286-58.514286 14.628571-21.942857 14.628571-36.571429 14.628571-65.828571 0-21.942857-7.314286-43.885714-29.257143-65.828572-14.628571-14.628571-43.885714-21.942857-73.142857-21.942857-51.2 0-95.085714 21.942857-131.657143 58.514286V277.942857c43.885714-29.257143 87.771429-43.885714 138.971429-43.885714s87.771429 14.628571 117.028571 36.571428c29.257143 29.257143 43.885714 58.514286 43.885715 102.4 0 29.257143-7.314286 58.514286-21.942857 80.457143-14.628571 21.942857-36.571429 51.2-73.142858 80.457143-29.257143 21.942857-43.885714 36.571429-51.2 51.2-7.314286 14.628571-14.628571 29.257143-14.628571 51.2v36.571429z m-36.571428 80.457143c14.628571 0 21.942857 7.314286 36.571428 14.628571 7.314286 7.314286 14.628571 21.942857 14.628572 36.571429s-7.314286 21.942857-14.628572 36.571428c-7.314286 7.314286-21.942857 14.628571-36.571428 14.628572s-21.942857-7.314286-36.571429-14.628572c-7.314286-7.314286-14.628571-21.942857-14.628571-36.571428s7.314286-21.942857 14.628571-36.571429c14.628571-7.314286 21.942857-14.628571 36.571429-14.628571zM512 1024c-285.257143 0-512-226.742857-512-512s226.742857-512 512-512 512 226.742857 512 512-226.742857 512-512 512z m0-73.142857c241.371429 0 438.857143-197.485714 438.857143-438.857143s-197.485714-438.857143-438.857143-438.857143-438.857143 197.485714-438.857143 438.857143 197.485714 438.857143 438.857143 438.857143z" p-id="18313" fill="#6c757d"></path></svg>